# xmcd
#
# Track frame offsets:
#	150
#	14719
#	33761
#	51381
#	68749
#	89275
#	108330
#	137222
#	165122
#	179528
#	202623
#	219917
#	246906
#	271615
#
# Disc length: 4144 seconds
#
# Revision: 1
# Processed by: cddbd v1.5.2PL0 Copyright (c) Steve Scherf et al.
# Submitted via: audiograbber 1.83.01
#
DISCID=b6102e0e
DTITLE=Kim Massie with the Solomon Douglas Swingtet - Soul Serenade
DYEAR=2010
DGENRE=Blues
TTITLE0=Evil Gal Blues
TTITLE1=Feeling Good
TTITLE2=Someone Else is Steppin' In
TTITLE3=Soul Serenade
TTITLE4=Hard Times (no one knows better than I)
TTITLE5=Hip Hug-her
TTITLE6=I'm a Woman
TTITLE7=If I Can't Sell It (I'll keep sittin' on it)
TTITLE8=Respect
TTITLE9=Back at the Chicken Shack
TTITLE10=(you make me feel like) A Natural Woman
TTITLE11=At Last
TTITLE12=Tell Me Something Good
TTITLE13=Dr. Feelgood (love is a serious business)
EXTD=Live from Emerald City Blues Festival, Seattle, WA 2010
EXTT0=
EXTT1=
EXTT2=
EXTT3=
EXTT4=
EXTT5=
EXTT6=
EXTT7=
EXTT8=
EXTT9=
EXTT10=
EXTT11=
EXTT12=
EXTT13=
PLAYORDER=
